<svg xmlns="http://www.w3.org/2000/svg" xmlns:xlink="http://www.w3.org/1999/xlink" width="5000" zoomAndPan="magnify" viewBox="0 0 3750 1124.99995" height="1500" preserveAspectRatio="xMidYMid meet" version="1.0"><defs><g/><clipPath id="7ffb5e100a"><path d="M 16 11 L 1006 11 L 1006 1114 L 16 1114 Z M 16 11 " clip-rule="nonzero"/></clipPath><clipPath id="ed5c1f416e"><path d="M 273.746094 -149.53125 L 1248.058594 421.859375 L 747.996094 1274.542969 L -226.316406 703.152344 Z M 273.746094 -149.53125 " clip-rule="nonzero"/></clipPath><clipPath id="11aa93ce47"><path d="M 273.746094 -149.53125 L 1248.058594 421.859375 L 747.996094 1274.542969 L -226.316406 703.152344 Z M 273.746094 -149.53125 " clip-rule="nonzero"/></clipPath><clipPath id="b6f15f2968"><path d="M 529.492188 264.847656 L 844.359375 264.847656 L 844.359375 836.550781 L 529.492188 836.550781 Z M 529.492188 264.847656 " clip-rule="nonzero"/></clipPath><clipPath id="b7b402c725"><path d="M 191.109375 264.847656 L 505.976562 264.847656 L 505.976562 836.550781 L 191.109375 836.550781 Z M 191.109375 264.847656 " clip-rule="nonzero"/></clipPath></defs><g fill="#ffffff" fill-opacity="1"><g transform="translate(1068.544455, 553.535486)"><g><path d="M 273.9375 0 L 273.9375 -66.050781 L 108.550781 -66.050781 L 108.550781 -390.679688 L 34.816406 -390.679688 L 34.816406 0 Z M 273.9375 0 "/></g></g></g><g fill="#ffffff" fill-opacity="1"><g transform="translate(1321.975843, 553.535486)"><g><path d="M 114.183594 5.632812 C 138.761719 5.632812 161.289062 1.535156 179.210938 -10.242188 C 189.964844 -16.898438 198.15625 -26.113281 205.324219 -38.914062 L 205.324219 0 L 274.449219 0 L 274.449219 -149.511719 C 274.449219 -189.453125 274.449219 -234.511719 240.65625 -264.210938 C 219.148438 -284.179688 186.890625 -293.394531 153.609375 -293.394531 C 96.773438 -293.394531 40.960938 -262.671875 30.722656 -195.597656 L 99.335938 -195.597656 C 104.453125 -222.734375 126.984375 -239.121094 153.097656 -239.121094 C 169.484375 -239.121094 182.796875 -234.511719 191.5 -225.292969 C 200.203125 -216.078125 204.8125 -202.253906 205.324219 -184.84375 L 119.816406 -168.972656 C 95.75 -164.363281 71.171875 -157.195312 52.738281 -144.394531 C 32.769531 -130.570312 19.96875 -109.574219 19.96875 -78.851562 C 19.96875 -24.066406 59.90625 5.632812 114.183594 5.632812 Z M 131.082031 -48.644531 C 107.015625 -48.644531 89.09375 -59.90625 89.09375 -81.414062 C 89.09375 -91.140625 92.679688 -98.308594 98.308594 -103.941406 C 106.503906 -111.625 118.28125 -116.742188 138.25 -120.328125 L 206.863281 -134.152344 C 205.835938 -96.261719 198.15625 -71.683594 167.945312 -56.835938 C 156.683594 -51.203125 143.882812 -48.644531 131.082031 -48.644531 Z M 131.082031 -48.644531 "/></g></g></g><g fill="#ffffff" fill-opacity="1"><g transform="translate(1598.446684, 553.535486)"><g><path d="M 182.285156 5.632812 C 257.550781 5.632812 308.757812 -55.8125 308.757812 -143.882812 C 308.757812 -231.949219 257.550781 -293.394531 182.285156 -293.394531 C 148.488281 -293.394531 123.910156 -283.667969 100.871094 -250.894531 L 100.871094 -390.679688 L 31.746094 -390.679688 L 31.746094 0 L 100.871094 0 L 100.871094 -36.355469 C 123.910156 -4.097656 148.488281 5.632812 182.285156 5.632812 Z M 166.410156 -53.761719 C 122.375 -53.761719 92.164062 -90.628906 92.164062 -143.882812 C 92.164062 -197.132812 122.375 -234 166.410156 -234 C 210.445312 -234 239.121094 -196.109375 239.121094 -143.882812 C 239.121094 -91.652344 210.445312 -53.761719 166.410156 -53.761719 Z M 166.410156 -53.761719 "/></g></g></g><g fill="#ffffff" fill-opacity="1"><g transform="translate(1901.54083, 553.535486)"><g><path d="M 166.410156 5.632812 C 254.480469 5.632812 313.875 -55.8125 313.875 -145.417969 C 313.875 -231.949219 253.457031 -293.394531 166.410156 -293.394531 C 79.363281 -293.394531 19.457031 -232.464844 19.457031 -145.417969 C 19.457031 -55.300781 79.878906 5.632812 166.410156 5.632812 Z M 166.410156 -53.761719 C 121.863281 -53.761719 90.117188 -90.628906 90.117188 -145.417969 C 90.117188 -197.132812 121.863281 -234 166.410156 -234 C 211.980469 -234 242.191406 -196.621094 242.191406 -145.417969 C 242.191406 -91.652344 211.46875 -53.761719 166.410156 -53.761719 Z M 166.410156 -53.761719 "/></g></g></g><g fill="#ffffff" fill-opacity="1"><g transform="translate(2209.242973, 553.535486)"><g><path d="M 100.359375 0 L 100.359375 -133.128906 C 100.359375 -171.019531 108.039062 -194.058594 123.398438 -209.421875 C 134.664062 -220.175781 151.050781 -226.832031 174.601562 -226.832031 L 190.476562 -226.832031 L 190.476562 -293.394531 L 182.285156 -293.394531 C 148.488281 -293.394531 122.375 -283.152344 100.359375 -252.945312 L 100.359375 -287.25 L 31.234375 -287.25 L 31.234375 0 Z M 100.359375 0 "/></g></g></g><g fill="#004aad" fill-opacity="1"><g transform="translate(1068.544455, 956.741315)"><g><path d="M 211.46875 8.703125 C 314.386719 8.703125 374.296875 -48.132812 384.535156 -132.617188 L 284.179688 -132.617188 C 278.035156 -91.652344 248.335938 -73.222656 209.421875 -73.222656 C 147.464844 -73.222656 113.160156 -121.351562 113.160156 -195.597656 C 113.160156 -269.328125 147.464844 -316.949219 209.421875 -316.949219 C 248.335938 -316.949219 278.546875 -298.515625 284.179688 -258.578125 L 384.535156 -258.578125 C 374.296875 -342.550781 314.386719 -398.875 211.46875 -398.875 C 77.828125 -398.875 16.386719 -304.660156 16.386719 -195.597656 C 16.386719 -86.535156 77.828125 8.703125 211.46875 8.703125 Z M 211.46875 8.703125 "/></g></g></g><g fill="#004aad" fill-opacity="1"><g transform="translate(1432.564384, 956.741315)"><g><path d="M 168.972656 6.144531 C 261.136719 6.144531 321.558594 -54.789062 321.558594 -146.953125 C 321.558594 -235.535156 260.113281 -296.46875 168.972656 -296.46875 C 77.828125 -296.46875 16.386719 -236.046875 16.386719 -146.953125 C 16.386719 -54.277344 78.339844 6.144531 168.972656 6.144531 Z M 168.972656 -67.589844 C 130.570312 -67.589844 104.964844 -98.308594 104.964844 -146.953125 C 104.964844 -192.523438 130.570312 -223.246094 168.972656 -223.246094 C 207.886719 -223.246094 231.949219 -192.011719 231.949219 -146.953125 C 231.949219 -99.335938 207.886719 -67.589844 168.972656 -67.589844 Z M 168.972656 -67.589844 "/></g></g></g><g fill="#004aad" fill-opacity="1"><g transform="translate(1735.65777, 956.741315)"><g><path d="M 114.183594 0 L 114.183594 -163.339844 C 114.183594 -188.429688 117.769531 -202.765625 124.9375 -212.492188 C 132.617188 -223.246094 145.417969 -227.34375 163.339844 -227.34375 C 177.675781 -227.34375 187.917969 -224.269531 195.085938 -216.589844 C 203.789062 -207.375 207.375 -192.011719 207.375 -163.339844 L 207.375 0 L 293.394531 0 L 293.394531 -162.316406 C 293.394531 -198.15625 293.394531 -221.199219 282.128906 -246.289062 C 270.351562 -272.914062 245.777344 -296.46875 188.429688 -296.46875 C 157.707031 -296.46875 133.640625 -288.273438 114.183594 -259.089844 L 114.183594 -290.324219 L 28.160156 -290.324219 L 28.160156 0 Z M 114.183594 0 "/></g></g></g><g fill="#004aad" fill-opacity="1"><g transform="translate(2020.31958, 956.741315)"><g><path d="M 158.730469 6.144531 C 236.046875 6.144531 283.152344 -32.769531 283.152344 -90.628906 C 283.152344 -158.21875 219.664062 -169.996094 168.972656 -179.210938 C 135.6875 -185.355469 108.039062 -190.476562 108.039062 -209.933594 C 108.039062 -223.246094 121.863281 -231.949219 142.855469 -231.949219 C 164.875 -231.949219 186.890625 -221.710938 195.085938 -194.058594 L 276.496094 -194.058594 C 265.746094 -260.113281 214.03125 -296.46875 143.371094 -296.46875 C 82.949219 -296.46875 26.625 -271.890625 26.625 -207.886719 C 26.625 -139.273438 89.09375 -126.472656 138.761719 -116.742188 C 171.53125 -110.085938 198.667969 -104.453125 198.667969 -84.996094 C 198.667969 -68.613281 180.746094 -58.882812 157.707031 -58.882812 C 133.128906 -58.882812 108.039062 -71.171875 98.308594 -100.359375 L 14.847656 -100.359375 C 24.578125 -19.457031 97.796875 6.144531 158.730469 6.144531 Z M 158.730469 6.144531 "/></g></g></g><g fill="#004aad" fill-opacity="1"><g transform="translate(2286.549873, 956.741315)"><g><path d="M 167.433594 6.144531 C 240.144531 6.144531 295.957031 -33.28125 310.292969 -100.359375 L 216.589844 -100.359375 C 210.957031 -76.292969 196.621094 -62.46875 167.433594 -62.46875 C 129.03125 -62.46875 104.964844 -94.214844 104.964844 -146.953125 C 104.964844 -197.644531 129.03125 -228.367188 167.433594 -228.367188 C 193.035156 -228.367188 207.886719 -217.101562 215.566406 -193.546875 L 309.78125 -193.546875 C 294.929688 -256.527344 240.65625 -296.46875 167.433594 -296.46875 C 76.292969 -296.46875 16.386719 -236.046875 16.386719 -146.953125 C 16.386719 -54.277344 76.804688 6.144531 167.433594 6.144531 Z M 167.433594 6.144531 "/></g></g></g><g fill="#004aad" fill-opacity="1"><g transform="translate(2575.819561, 956.741315)"><g><path d="M 71.171875 -310.292969 C 97.796875 -310.292969 119.816406 -326.675781 119.816406 -354.328125 C 119.816406 -381.464844 97.796875 -398.875 71.171875 -398.875 C 44.546875 -398.875 22.53125 -381.464844 22.53125 -354.328125 C 22.53125 -326.675781 44.546875 -310.292969 71.171875 -310.292969 Z M 114.183594 0 L 114.183594 -290.324219 L 28.160156 -290.324219 L 28.160156 0 Z M 114.183594 0 "/></g></g></g><g fill="#004aad" fill-opacity="1"><g transform="translate(2683.333616, 956.741315)"><g><path d="M 167.945312 6.144531 C 249.871094 6.144531 294.417969 -43.011719 310.804688 -100.359375 L 224.269531 -100.359375 C 217.101562 -82.4375 198.667969 -67.589844 172.554688 -67.589844 C 151.050781 -67.589844 133.640625 -74.246094 121.351562 -89.605469 C 114.183594 -98.308594 108.550781 -112.648438 106.503906 -126.984375 L 315.414062 -126.984375 L 315.414062 -141.832031 C 315.414062 -253.96875 241.679688 -296.46875 165.386719 -296.46875 C 60.417969 -296.46875 16.386719 -216.589844 16.386719 -142.855469 C 16.386719 -56.835938 75.78125 6.144531 167.945312 6.144531 Z M 109.0625 -187.917969 C 110.085938 -194.574219 112.648438 -204.300781 122.375 -214.03125 C 134.664062 -226.320312 151.050781 -230.925781 168.457031 -230.925781 C 185.867188 -230.925781 202.253906 -226.320312 214.542969 -214.03125 C 223.757812 -204.8125 226.832031 -194.574219 228.367188 -187.917969 Z M 109.0625 -187.917969 "/></g></g></g><g fill="#004aad" fill-opacity="1"><g transform="translate(2980.283182, 956.741315)"><g><path d="M 114.183594 0 L 114.183594 -163.339844 C 114.183594 -188.429688 117.769531 -202.765625 124.9375 -212.492188 C 132.617188 -223.246094 145.417969 -227.34375 163.339844 -227.34375 C 177.675781 -227.34375 187.917969 -224.269531 195.085938 -216.589844 C 203.789062 -207.375 207.375 -192.011719 207.375 -163.339844 L 207.375 0 L 293.394531 0 L 293.394531 -162.316406 C 293.394531 -198.15625 293.394531 -221.199219 282.128906 -246.289062 C 270.351562 -272.914062 245.777344 -296.46875 188.429688 -296.46875 C 157.707031 -296.46875 133.640625 -288.273438 114.183594 -259.089844 L 114.183594 -290.324219 L 28.160156 -290.324219 L 28.160156 0 Z M 114.183594 0 "/></g></g></g><g fill="#004aad" fill-opacity="1"><g transform="translate(3264.945111, 956.741315)"><g><path d="M 186.378906 0 L 186.378906 -69.636719 L 154.121094 -69.636719 C 139.273438 -69.636719 136.710938 -78.851562 136.710938 -87.046875 L 136.710938 -223.246094 L 186.890625 -223.246094 L 186.890625 -290.324219 L 136.710938 -290.324219 L 136.710938 -390.679688 L 50.691406 -390.679688 L 50.691406 -290.324219 L 10.753906 -290.324219 L 10.753906 -223.246094 L 50.691406 -223.246094 L 50.691406 -57.859375 C 50.691406 -20.992188 75.269531 0 117.769531 0 Z M 186.378906 0 "/></g></g></g><g fill="#004aad" fill-opacity="1"><g transform="translate(3433.897711, 956.741315)"><g><path d="M 167.945312 6.144531 C 249.871094 6.144531 294.417969 -43.011719 310.804688 -100.359375 L 224.269531 -100.359375 C 217.101562 -82.4375 198.667969 -67.589844 172.554688 -67.589844 C 151.050781 -67.589844 133.640625 -74.246094 121.351562 -89.605469 C 114.183594 -98.308594 108.550781 -112.648438 106.503906 -126.984375 L 315.414062 -126.984375 L 315.414062 -141.832031 C 315.414062 -253.96875 241.679688 -296.46875 165.386719 -296.46875 C 60.417969 -296.46875 16.386719 -216.589844 16.386719 -142.855469 C 16.386719 -56.835938 75.78125 6.144531 167.945312 6.144531 Z M 109.0625 -187.917969 C 110.085938 -194.574219 112.648438 -204.300781 122.375 -214.03125 C 134.664062 -226.320312 151.050781 -230.925781 168.457031 -230.925781 C 185.867188 -230.925781 202.253906 -226.320312 214.542969 -214.03125 C 223.757812 -204.8125 226.832031 -194.574219 228.367188 -187.917969 Z M 109.0625 -187.917969 "/></g></g></g><g clip-path="url(#7ffb5e100a)"><g clip-path="url(#ed5c1f416e)"><g clip-path="url(#11aa93ce47)"><path fill="#004aad" d="M 448.453125 1097.621094 L 74.199219 878.136719 C 71.996094 876.839844 69.835938 875.472656 67.722656 874.035156 C 65.609375 872.597656 63.542969 871.09375 61.527344 869.523438 C 59.511719 867.953125 57.546875 866.316406 55.636719 864.617188 C 53.726562 862.921875 51.875 861.160156 50.082031 859.339844 C 48.285156 857.523438 46.550781 855.644531 44.875 853.714844 C 43.203125 851.78125 41.59375 849.796875 40.050781 847.757812 C 38.503906 845.722656 37.027344 843.636719 35.621094 841.503906 C 34.210938 839.371094 32.875 837.195312 31.605469 834.972656 C 30.339844 832.753906 29.144531 830.496094 28.027344 828.199219 C 26.90625 825.898438 25.859375 823.566406 24.894531 821.203125 C 23.925781 818.835938 23.035156 816.441406 22.222656 814.015625 C 21.40625 811.59375 20.675781 809.144531 20.023438 806.675781 C 19.367188 804.203125 18.796875 801.714844 18.304688 799.203125 C 17.8125 796.695312 17.402344 794.171875 17.074219 791.636719 C 16.746094 789.101562 16.503906 786.558594 16.339844 784.007812 C 16.179688 781.457031 16.101562 778.902344 16.105469 776.347656 L 19.148438 342.5625 C 19.171875 339.996094 19.277344 337.429688 19.464844 334.871094 C 19.65625 332.308594 19.929688 329.757812 20.285156 327.214844 C 20.640625 324.671875 21.078125 322.144531 21.597656 319.628906 C 22.117188 317.117188 22.722656 314.621094 23.40625 312.148438 C 24.085938 309.671875 24.851562 307.222656 25.695312 304.796875 C 26.539062 302.371094 27.460938 299.976562 28.460938 297.613281 C 29.457031 295.246094 30.535156 292.917969 31.6875 290.625 C 32.839844 288.328125 34.0625 286.074219 35.363281 283.859375 C 36.660156 281.644531 38.03125 279.472656 39.472656 277.347656 C 40.910156 275.222656 42.417969 273.148438 43.996094 271.121094 C 45.570312 269.09375 47.210938 267.121094 48.917969 265.199219 C 50.621094 263.28125 52.386719 261.417969 54.214844 259.613281 C 56.039062 257.808594 57.921875 256.066406 59.863281 254.382812 C 61.800781 252.703125 63.796875 251.085938 65.839844 249.535156 C 67.886719 247.980469 69.980469 246.5 72.121094 245.082031 C 74.265625 243.667969 76.449219 242.324219 78.679688 241.050781 L 455.683594 26.796875 C 457.910156 25.523438 460.171875 24.320312 462.476562 23.195312 C 464.78125 22.070312 467.121094 21.023438 469.496094 20.050781 C 471.867188 19.078125 474.269531 18.183594 476.703125 17.371094 C 479.132812 16.554688 481.589844 15.820312 484.070312 15.167969 C 486.546875 14.511719 489.046875 13.941406 491.5625 13.453125 C 494.082031 12.960938 496.613281 12.554688 499.15625 12.230469 C 501.699219 11.90625 504.25 11.667969 506.8125 11.511719 C 509.371094 11.355469 511.933594 11.28125 514.496094 11.292969 C 517.0625 11.304688 519.625 11.398438 522.179688 11.578125 C 524.738281 11.757812 527.289062 12.023438 529.828125 12.367188 C 532.371094 12.714844 534.898438 13.144531 537.410156 13.65625 C 539.921875 14.167969 542.414062 14.761719 544.890625 15.4375 C 547.363281 16.113281 549.8125 16.871094 552.234375 17.707031 C 554.660156 18.542969 557.054688 19.457031 559.417969 20.453125 C 561.78125 21.445312 564.109375 22.515625 566.40625 23.660156 C 568.699219 24.804688 570.953125 26.027344 573.167969 27.320312 L 947.421875 246.804688 C 949.632812 248.105469 951.796875 249.476562 953.921875 250.917969 C 956.042969 252.359375 958.113281 253.867188 960.136719 255.445312 C 962.160156 257.023438 964.128906 258.667969 966.042969 260.375 C 967.957031 262.082031 969.816406 263.847656 971.613281 265.679688 C 973.414062 267.507812 975.148438 269.394531 976.824219 271.335938 C 978.5 273.277344 980.109375 275.273438 981.652344 277.324219 C 983.199219 279.371094 984.671875 281.46875 986.078125 283.613281 C 987.484375 285.761719 988.820312 287.949219 990.082031 290.183594 C 991.347656 292.417969 992.535156 294.6875 993.648438 297 C 994.761719 299.3125 995.796875 301.65625 996.757812 304.035156 C 997.71875 306.414062 998.597656 308.824219 999.402344 311.257812 C 1000.203125 313.695312 1000.925781 316.15625 1001.5625 318.640625 C 1002.203125 321.125 1002.761719 323.628906 1003.238281 326.148438 C 1003.714844 328.671875 1004.109375 331.203125 1004.417969 333.75 C 1004.726562 336.296875 1004.953125 338.851562 1005.097656 341.414062 C 1005.238281 343.976562 1005.296875 346.539062 1005.269531 349.105469 L 1002.410156 782.945312 C 1002.382812 785.511719 1002.269531 788.070312 1002.074219 790.632812 C 1001.878906 793.191406 1001.601562 795.738281 1001.242188 798.28125 C 1000.878906 800.820312 1000.4375 803.347656 999.914062 805.859375 C 999.386719 808.371094 998.78125 810.863281 998.09375 813.335938 C 997.410156 815.808594 996.644531 818.257812 995.796875 820.679688 C 994.953125 823.101562 994.027344 825.496094 993.027344 827.859375 C 992.027344 830.222656 990.949219 832.550781 989.800781 834.84375 C 988.648438 837.136719 987.421875 839.390625 986.125 841.601562 C 984.824219 843.816406 983.457031 845.988281 982.019531 848.109375 C 980.578125 850.234375 979.070312 852.3125 977.5 854.339844 C 975.925781 856.367188 974.285156 858.339844 972.585938 860.261719 C 970.882812 862.179688 969.121094 864.042969 967.296875 865.851562 C 965.476562 867.65625 963.59375 869.402344 961.660156 871.085938 C 959.722656 872.769531 957.734375 874.390625 955.691406 875.945312 C 953.652344 877.5 951.5625 878.988281 949.425781 880.40625 C 947.285156 881.828125 945.105469 883.175781 942.878906 884.453125 L 565.539062 1098.730469 C 563.3125 1099.980469 561.046875 1101.15625 558.742188 1102.257812 C 556.4375 1103.359375 554.097656 1104.386719 551.726562 1105.335938 C 549.355469 1106.289062 546.957031 1107.160156 544.53125 1107.953125 C 542.101562 1108.746094 539.652344 1109.460938 537.175781 1110.09375 C 534.703125 1110.730469 532.210938 1111.28125 529.699219 1111.753906 C 527.1875 1112.226562 524.667969 1112.617188 522.128906 1112.925781 C 519.59375 1113.230469 517.050781 1113.457031 514.5 1113.597656 C 511.953125 1113.742188 509.398438 1113.800781 506.84375 1113.773438 C 504.292969 1113.75 501.742188 1113.644531 499.195312 1113.453125 C 496.648438 1113.261719 494.109375 1112.988281 491.578125 1112.632812 C 489.050781 1112.277344 486.535156 1111.839844 484.035156 1111.320312 C 481.535156 1110.800781 479.050781 1110.203125 476.589844 1109.519531 C 474.128906 1108.839844 471.691406 1108.078125 469.28125 1107.238281 C 466.867188 1106.398438 464.484375 1105.484375 462.132812 1104.488281 C 459.78125 1103.492188 457.464844 1102.421875 455.179688 1101.277344 C 452.898438 1100.132812 450.65625 1098.910156 448.453125 1097.621094 Z M 448.453125 1097.621094 " fill-opacity="1" fill-rule="nonzero"/></g></g></g><path fill="#ffffff" d="M 773.003906 493.929688 C 764.835938 505.988281 753.910156 516.292969 740.589844 523.320312 C 738.707031 524.324219 736.695312 524.828125 734.683594 524.828125 C 730.296875 524.828125 725.890625 522.445312 723.632812 518.175781 C 720.496094 512.023438 722.757812 504.488281 728.914062 501.222656 C 750.136719 490.042969 763.332031 468.191406 763.332031 444.195312 C 763.332031 416.566406 745.488281 392.332031 720.242188 383.417969 C 718.488281 392.957031 715.34375 402.25 710.566406 410.789062 C 707.175781 416.820312 699.515625 418.953125 693.484375 415.566406 C 687.457031 412.167969 685.320312 404.515625 688.710938 398.488281 C 693.988281 388.933594 696.878906 378.132812 696.878906 367.089844 C 696.878906 331.421875 667.855469 302.527344 632.304688 302.527344 C 596.757812 302.527344 567.734375 331.542969 567.734375 367.089844 L 567.734375 518.296875 C 579.542969 520.054688 590.46875 523.945312 600.269531 529.847656 C 610.695312 492.679688 644.742188 465.417969 685.0625 465.417969 C 691.980469 465.417969 697.628906 471.078125 697.628906 477.984375 C 697.628906 484.894531 691.980469 490.542969 685.0625 490.542969 C 652.023438 490.542969 625.015625 516.292969 622.503906 548.691406 C 635.449219 564.011719 643.359375 583.855469 643.359375 605.453125 C 643.359375 612.371094 637.707031 618.019531 630.796875 618.019531 C 623.882812 618.019531 618.234375 612.371094 618.234375 605.453125 C 618.234375 589.136719 611.832031 574.308594 601.523438 563.136719 C 600.640625 562.507812 599.890625 561.625 599.261719 560.621094 C 590.71875 552.210938 579.921875 546.308594 567.734375 543.792969 L 567.734375 734.308594 C 567.734375 769.976562 596.757812 798.871094 632.304688 798.871094 C 663.710938 798.871094 689.839844 776.261719 695.621094 746.625 C 678.914062 745.996094 662.707031 740.972656 648.761719 731.550781 C 642.984375 727.660156 641.472656 719.867188 645.367188 714.097656 C 649.261719 708.316406 657.054688 706.808594 662.835938 710.699219 C 673.507812 717.980469 685.941406 721.757812 698.890625 721.757812 C 734.433594 721.757812 763.457031 692.742188 763.457031 657.203125 C 763.457031 650.796875 762.453125 644.519531 760.566406 638.484375 C 754.542969 639.746094 748.382812 640.371094 742.101562 640.371094 C 732.679688 640.371094 723.253906 638.871094 714.335938 635.980469 C 707.804688 633.839844 704.167969 626.8125 706.292969 620.152344 C 708.433594 613.617188 715.464844 609.980469 722.128906 612.117188 C 728.53125 614.25 735.316406 615.253906 742.101562 615.253906 C 777.648438 615.253906 806.671875 586.242188 806.671875 550.703125 C 806.671875 526.960938 793.605469 505.359375 773.003906 493.929688 " fill-opacity="1" fill-rule="nonzero"/><g clip-path="url(#b6f15f2968)"><path fill="#ffffff" d="M 784.0625 629.824219 C 786.949219 638.617188 788.460938 647.785156 788.460938 657.203125 C 788.460938 698.777344 759.9375 733.8125 721.371094 743.863281 C 716.472656 788.820312 678.410156 823.988281 632.179688 823.988281 C 582.6875 823.988281 542.488281 783.796875 542.488281 734.308594 L 542.488281 367.214844 C 542.488281 317.734375 582.6875 277.542969 632.179688 277.542969 C 678.410156 277.542969 716.597656 312.578125 721.371094 357.539062 C 760.191406 367.589844 788.460938 403.132812 788.460938 444.195312 C 788.460938 453.746094 786.828125 462.914062 784.0625 471.578125 C 813.082031 486.898438 831.800781 517.292969 831.800781 550.703125 C 831.800781 584.988281 812.453125 614.753906 784.0625 629.824219 Z M 844.359375 550.703125 C 844.359375 516.179688 827.074219 484.433594 798.648438 465.640625 C 800.230469 458.464844 801.03125 451.28125 801.03125 444.195312 C 801.03125 400.523438 773.304688 362.035156 732.632812 347.835938 C 723.554688 300.054688 681.773438 264.980469 632.1875 264.980469 C 575.796875 264.980469 529.917969 310.84375 529.917969 367.214844 L 529.917969 734.3125 C 529.917969 790.679688 575.796875 836.550781 632.1875 836.550781 C 681.632812 836.550781 723.421875 801.425781 732.609375 753.554688 C 773.292969 739.300781 801.03125 700.816406 801.03125 657.203125 C 801.03125 649.988281 800.246094 642.789062 798.683594 635.730469 C 827.085938 616.867188 844.359375 585.136719 844.359375 550.703125 " fill-opacity="1" fill-rule="nonzero"/></g><g clip-path="url(#b7b402c725)"><path fill="#ffffff" d="M 492.859375 734.308594 C 492.859375 783.796875 452.660156 823.988281 403.164062 823.988281 C 356.933594 823.988281 318.75 788.820312 313.964844 743.863281 C 275.40625 733.8125 246.886719 698.777344 246.886719 657.203125 C 246.886719 647.785156 248.519531 638.617188 251.285156 629.824219 C 223.015625 614.753906 203.667969 584.988281 203.667969 550.703125 C 203.667969 517.292969 222.390625 486.898438 251.285156 471.457031 C 248.519531 462.664062 246.886719 453.496094 246.886719 444.070312 C 246.886719 403.132812 275.027344 367.589844 313.964844 357.417969 C 318.871094 312.578125 356.933594 277.410156 403.164062 277.410156 C 452.660156 277.410156 492.859375 317.601562 492.859375 367.089844 Z M 403.171875 264.855469 C 353.707031 264.855469 311.921875 299.929688 302.730469 347.726562 C 262.0625 361.988281 234.328125 400.484375 234.328125 444.070312 C 234.328125 451.125 235.128906 458.316406 236.714844 465.550781 C 208.359375 484.464844 191.109375 516.253906 191.109375 550.703125 C 191.109375 585.121094 208.359375 616.867188 236.714844 635.738281 C 235.128906 642.972656 234.328125 650.164062 234.328125 657.203125 C 234.328125 700.800781 262.046875 739.292969 302.714844 753.554688 C 311.78125 801.425781 353.574219 836.550781 403.171875 836.550781 C 459.554688 836.550781 505.425781 790.679688 505.425781 734.3125 L 505.425781 367.089844 C 505.425781 310.71875 459.554688 264.855469 403.171875 264.855469 " fill-opacity="1" fill-rule="nonzero"/></g><path fill="#ffffff" d="M 403.039062 302.660156 C 367.492188 302.660156 338.46875 331.667969 338.46875 367.214844 C 338.46875 378.132812 341.230469 389.066406 346.632812 398.605469 C 350.023438 404.632812 347.894531 412.300781 341.855469 415.6875 C 335.832031 419.085938 328.167969 416.945312 324.769531 410.921875 C 320.003906 402.371094 316.859375 393.082031 315.105469 383.539062 C 289.847656 392.453125 272.011719 416.695312 272.011719 444.328125 C 272.011719 468.191406 285.203125 490.164062 306.433594 501.34375 C 312.589844 504.609375 314.972656 512.144531 311.707031 518.296875 C 309.578125 522.570312 305.171875 524.953125 300.652344 524.953125 C 298.640625 524.953125 296.636719 524.457031 294.746094 523.453125 C 281.304688 516.292969 270.378906 506.121094 262.339844 494.0625 C 241.863281 505.359375 228.800781 526.960938 228.800781 550.703125 C 228.800781 586.242188 257.691406 615.253906 293.246094 615.382812 C 300.027344 615.382812 306.804688 614.375 313.222656 612.238281 C 319.871094 610.105469 326.914062 613.75 329.042969 620.28125 C 331.1875 626.933594 327.542969 633.96875 321.007812 636.101562 C 312.082031 638.988281 302.667969 640.503906 293.246094 640.503906 C 286.835938 640.503906 280.675781 639.871094 274.773438 638.617188 C 272.894531 644.640625 271.886719 650.917969 271.886719 657.328125 C 271.886719 692.875 300.902344 721.878906 336.457031 721.878906 C 349.394531 721.878906 361.832031 717.980469 372.515625 710.832031 C 378.292969 706.941406 386.085938 708.441406 389.972656 714.21875 C 393.867188 720 392.363281 727.78125 386.578125 731.675781 C 372.632812 741.09375 356.554688 746.125 339.722656 746.742188 C 345.507812 776.507812 371.632812 798.992188 403.039062 798.992188 C 438.710938 798.992188 467.613281 769.976562 467.613281 734.441406 L 467.613281 544.046875 C 455.425781 546.554688 444.621094 552.457031 436.074219 560.875 C 435.445312 561.753906 434.695312 562.625 433.8125 563.386719 C 423.519531 574.566406 417.105469 589.382812 417.105469 605.707031 C 417.105469 612.617188 411.453125 618.273438 404.542969 618.273438 C 397.640625 618.273438 391.988281 612.617188 391.988281 605.707031 C 391.988281 584.105469 399.898438 564.257812 412.835938 548.945312 C 410.324219 516.542969 383.3125 490.796875 350.277344 490.796875 C 343.367188 490.796875 337.71875 485.144531 337.71875 478.230469 C 337.71875 471.324219 343.367188 465.675781 350.277344 465.675781 C 390.597656 465.675781 424.640625 493.058594 435.074219 530.105469 C 444.871094 524.203125 455.925781 520.1875 467.613281 518.554688 L 467.613281 367.214844 C 467.613281 331.542969 438.589844 302.660156 403.039062 302.660156 " fill-opacity="1" fill-rule="nonzero"/></svg>